<?xml version="1.0" standalone="no"?>
<!DOCTYPE svg PUBLIC "-//W3C//DTD SVG 20010904//EN"
 "http://www.w3.org/TR/2001/REC-SVG-20010904/DTD/svg10.dtd">
<svg version="1.0" xmlns="http://www.w3.org/2000/svg"
 width="200.000000pt" height="200.000000pt" viewBox="0 0 200.000000 200.000000"
 preserveAspectRatio="xMidYMid meet">
<metadata>
Created by potrace 1.14, written by Peter Selinger 2001-2017
</metadata>
<g transform="translate(0.000000,200.000000) scale(0.100000,-0.100000)"
fill="#000000" stroke="none">
<path d="M950 1647 c-3 -3 -22 -8 -43 -11 -80 -13 -211 -80 -288 -149 -14 -13
-46 -48 -71 -79 -153 -188 -185 -470 -77 -684 41 -82 44 -73 -56 -159 -38 -33
-76 -66 -83 -73 -11 -10 -8 -19 18 -52 34 -43 42 -47 62 -27 7 7 48 43 91 80
l78 68 44 -39 c101 -89 231 -135 380 -136 165 0 302 56 424 174 126 121 187
256 206 453 3 37 8 76 10 85 1 9 6 55 10 102 4 47 8 87 10 90 2 3 6 41 9 85 4
44 9 89 11 100 3 11 7 46 10 78 5 50 3 57 -12 58 -10 0 -34 2 -53 4 -19 1 -91
6 -160 10 -69 4 -145 9 -170 11 -113 8 -345 16 -350 11z m350 -112 c52 -4 115
-9 140 -10 25 -2 51 -3 57 -4 7 -1 -65 -69 -160 -152 -94 -83 -199 -174 -231
-202 -32 -29 -75 -65 -95 -82 -19 -16 -60 -52 -91 -79 -30 -27 -71 -63 -90
-80 -20 -17 -67 -58 -105 -91 -39 -33 -88 -76 -110 -97 l-39 -37 -16 27 c-31
52 -52 128 -57 212 -16 263 151 503 406 584 81 26 157 28 391 11z m275 -180
c-11 -119 -5 -110 -66 -108 -30 0 -72 2 -94 2 l-40 1 65 58 c35 31 80 72 100
89 19 18 36 33 38 33 2 0 0 -34 -3 -75z m-130 -209 c33 -3 70 -5 83 -5 21 -1
23 -5 18 -43 -2 -24 -5 -48 -5 -54 -1 -6 -13 -10 -28 -8 -16 1 -82 6 -148 10
-108 6 -171 10 -200 13 -10 1 12 23 72 73 35 28 20 27 208 14z m-270 -190
c251 -13 331 -19 339 -26 4 -5 2 -28 -6 -52 l-15 -43 -54 1 c-53 1 -161 7
-364 21 -55 4 -108 7 -117 7 -27 0 -22 8 30 51 26 22 48 43 50 46 2 4 13 6 25
4 12 -3 63 -6 112 -9z m-90 -201 c100 -7 263 -17 297 -19 21 -1 40 -5 43 -8 3
-3 -13 -26 -36 -51 l-40 -47 -62 5 c-34 3 -98 7 -142 9 -44 3 -123 8 -175 12
-105 7 -177 12 -229 13 l-35 1 44 37 c24 21 48 43 54 51 11 12 54 12 281 -3z
m-105 -200 c132 -8 214 -15 218 -20 2 -2 -29 -14 -69 -26 -68 -21 -199 -29
-249 -16 -63 16 -81 23 -122 44 -27 13 -48 26 -48 29 0 4 36 3 270 -11z"/>
</g>
</svg>
