<svg width="31" height="27" viewBox="0 0 31 27" fill="none" xmlns="http://www.w3.org/2000/svg">
<path d="M25.3711 5.91157L15.6816 13.0302L12.2538 15.5485L8.82611 18.0668L5.40035 20.5836M19.1093 10.5119L24.7065 10.7842L19.1093 10.5119ZM8.82611 18.0668L21.0819 18.663L8.82611 18.0668ZM12.2538 15.5485L23.4222 16.0918L12.2538 15.5485ZM15.6816 13.0302L24.3427 13.4516L15.6816 13.0302ZM16.7099 5.49023C15.9495 5.45324 15.1776 5.50048 14.4325 5.63381C12.9422 5.90046 11.4641 6.5284 10.2812 7.39744C9.09835 8.26648 8.13551 9.43181 7.577 10.6704C7.0185 11.9089 6.82886 13.2994 7.04439 14.5756C7.25992 15.8518 7.8943 17.0949 8.82611 18.0668C9.75791 19.0387 11.0463 19.8012 12.4447 20.2084C13.8432 20.6156 15.4404 20.6933 16.9307 20.4266C18.421 20.16 19.8991 19.532 21.0819 18.663C22.2648 17.7939 23.2277 16.6286 23.7862 15.3901C24.0654 14.7708 24.2525 14.1135 24.3427 13.4516L25.3711 5.91157L16.7099 5.49023Z" stroke="#023300"/>
</svg>
