<svg width="31" height="31" viewBox="0 0 31 31" fill="none" xmlns="http://www.w3.org/2000/svg">
<path d="M25.4732 6.8296L16.0589 15.0284L12.7285 17.9288L9.39809 20.8293L6.06962 23.728M19.3893 12.128L24.8509 12.4705L19.3893 12.128ZM9.39809 20.8293L21.3571 21.5792L9.39809 20.8293ZM12.7285 17.9288L23.6264 18.6123L12.7285 17.9288ZM16.0589 15.0284L24.5103 15.5584L16.0589 15.0284ZM17.0218 6.29959C16.2799 6.25306 15.5271 6.30404 14.8009 6.45486C13.3485 6.75652 11.91 7.47672 10.7607 8.47763C9.6114 9.47854 8.67834 10.8237 8.14012 12.2557C7.60189 13.6877 7.42431 15.2974 7.64137 16.7767C7.85843 18.256 8.48391 19.6989 9.39809 20.8293C10.3123 21.9596 11.5732 22.8491 12.9396 23.3275C14.3059 23.8059 15.8645 23.9037 17.3169 23.602C18.7693 23.3004 20.2078 22.5802 21.3571 21.5792C22.5064 20.5783 23.4394 19.2332 23.9777 17.8012C24.2468 17.0852 24.4257 16.3248 24.5103 15.5584L25.4732 6.8296L17.0218 6.29959Z" stroke="#80B918"/>
</svg>
