<svg width="44" height="27" viewBox="0 0 44 27" fill="none" xmlns="http://www.w3.org/2000/svg">
<path d="M5.40035 5.91157L15.0898 13.0302L18.5176 15.5485L21.9453 18.0668L25.3711 20.5836M11.6621 10.5119L6.0649 10.7842L11.6621 10.5119ZM21.9453 18.0668L9.68949 18.663L21.9453 18.0668ZM18.5176 15.5485L7.3492 16.0918L18.5176 15.5485ZM15.0898 13.0302L6.42869 13.4516L15.0898 13.0302ZM14.0615 5.49023C14.8219 5.45324 15.5938 5.50048 16.3389 5.63381C17.8293 5.90046 19.3073 6.5284 20.4902 7.39744C21.6731 8.26648 22.6359 9.43181 23.1944 10.6704C23.7529 11.9089 23.9426 13.2994 23.727 14.5756C23.5115 15.8518 22.8771 17.0949 21.9453 18.0668C21.0135 19.0387 19.7251 19.8012 18.3267 20.2084C16.9283 20.6156 15.3311 20.6933 13.8407 20.4266C12.3504 20.16 10.8724 19.532 9.68949 18.663C8.5066 17.7939 7.54376 16.6286 6.98526 15.3901C6.706 14.7708 6.51897 14.1135 6.42869 13.4516L5.40035 5.91157L14.0615 5.49023Z" stroke="#777777"/>
<path fill-rule="evenodd" clip-rule="evenodd" d="M32.6652 8.43125L37.9169 5.1667L32.6652 8.43125ZM27.9546 20.6447L39.454 13.4965L27.9546 20.6447ZM29.5248 16.5736L40.0038 10.0596L29.5248 16.5736ZM31.095 12.5024L39.2216 7.45081L31.095 12.5024ZM27.407 6.04573C26.6936 6.48923 26.0213 7.00485 25.4261 7.57032C24.2357 8.70125 23.2779 10.1034 22.736 11.5083C22.1942 12.9132 22.0338 14.4102 22.2857 15.7126C22.5376 17.0151 23.2177 18.2058 24.1959 19.0568C25.174 19.9078 26.5123 20.4732 27.9546 20.6447C29.3969 20.8162 31.0348 20.6048 32.5549 20.0509C34.0749 19.497 35.5735 18.5654 36.7639 17.4345C37.9543 16.3036 38.9121 14.9015 39.454 13.4965C39.9958 12.0916 40.1562 10.5947 39.9043 9.29219C39.7783 8.64096 39.5453 8.01767 39.2216 7.45081L35.5336 0.994129L27.407 6.04573ZM35.5336 0.994129L31.095 12.5024L29.5248 16.5736L27.9546 20.6447L26.3854 24.7135" fill="#80B918"/>
<path d="M35.5336 0.994129L31.095 12.5024L29.5248 16.5736L27.9546 20.6447L26.3854 24.7135M32.6652 8.43125L37.9169 5.1667L32.6652 8.43125ZM27.9546 20.6447L39.454 13.4965L27.9546 20.6447ZM29.5248 16.5736L40.0038 10.0596L29.5248 16.5736ZM31.095 12.5024L39.2216 7.45081L31.095 12.5024ZM27.407 6.04573C26.6936 6.48922 26.0213 7.00485 25.4261 7.57032C24.2357 8.70125 23.2779 10.1034 22.736 11.5083C22.1942 12.9132 22.0338 14.4102 22.2857 15.7126C22.5376 17.0151 23.2177 18.2058 24.1959 19.0568C25.174 19.9078 26.5123 20.4732 27.9546 20.6447C29.3969 20.8162 31.0348 20.6048 32.5549 20.0509C34.0749 19.497 35.5735 18.5654 36.7639 17.4345C37.9543 16.3036 38.9121 14.9015 39.454 13.4965C39.9958 12.0916 40.1562 10.5947 39.9043 9.29219C39.7783 8.64096 39.5453 8.01767 39.2216 7.45081L35.5336 0.994129L27.407 6.04573Z" stroke="#2B9368"/>
</svg>
