<svg width="92" height="44" viewBox="0 0 92 44" fill="none" xmlns="http://www.w3.org/2000/svg">
<path d="M86.5996 5.91145L76.9102 13.0301L73.4824 15.5484L70.0547 18.0667L66.6289 20.5835M80.3379 10.5118L85.9351 10.7841L80.3379 10.5118ZM70.0547 18.0667L82.3105 18.6629L70.0547 18.0667ZM73.4824 15.5484L84.6508 16.0917L73.4824 15.5484ZM76.9102 13.0301L85.5713 13.4514L76.9102 13.0301ZM77.9385 5.49011C77.1781 5.45312 76.4062 5.50036 75.6611 5.63369C74.1707 5.90034 72.6927 6.52828 71.5098 7.39732C70.3269 8.26636 69.3641 9.43169 68.8056 10.6703C68.2471 11.9088 68.0574 13.2993 68.273 14.5755C68.4885 15.8517 69.1229 17.0947 70.0547 18.0667C70.9865 19.0386 72.2749 19.8011 73.6733 20.2083C75.0717 20.6155 76.6689 20.6932 78.1593 20.4265C79.6496 20.1598 81.1276 19.5319 82.3105 18.6629C83.4934 17.7938 84.4562 16.6285 85.0147 15.3899C85.294 14.7707 85.481 14.1134 85.5713 13.4514L86.5996 5.91145L77.9385 5.49011Z" stroke="white"/>
<path fill-rule="evenodd" clip-rule="evenodd" d="M59.3348 8.43113L54.0831 5.16658L59.3348 8.43113ZM64.0454 20.6446L52.546 13.4964L64.0454 20.6446ZM62.4752 16.5734L51.9962 10.0595L62.4752 16.5734ZM60.905 12.5023L52.7784 7.45069L60.905 12.5023ZM64.593 6.0456C65.3064 6.4891 65.9787 7.00473 66.5739 7.5702C67.7643 8.70113 68.7221 10.1032 69.264 11.5082C69.8058 12.9131 69.9662 14.41 69.7143 15.7125C69.4624 17.015 68.7823 18.2057 67.8041 19.0567C66.826 19.9077 65.4877 20.4731 64.0454 20.6446C62.6031 20.8161 60.9652 20.6047 59.4451 20.0508C57.9251 19.4969 56.4265 18.5653 55.2361 17.4344C54.0457 16.3034 53.0879 14.9013 52.546 13.4964C52.0042 12.0915 51.8438 10.5945 52.0957 9.29207C52.2217 8.64083 52.4547 8.01755 52.7784 7.45069L56.4664 0.994007L64.593 6.0456ZM56.4664 0.994007L60.905 12.5023L62.4752 16.5734L64.0454 20.6446L65.6146 24.7134" fill="#80B918"/>
<path d="M56.4664 0.994007L60.905 12.5023L62.4752 16.5734L64.0454 20.6446L65.6146 24.7134M59.3348 8.43113L54.0831 5.16658L59.3348 8.43113ZM64.0454 20.6446L52.546 13.4964L64.0454 20.6446ZM62.4752 16.5734L51.9962 10.0595L62.4752 16.5734ZM60.905 12.5023L52.7784 7.45069L60.905 12.5023ZM64.593 6.0456C65.3064 6.4891 65.9787 7.00473 66.5739 7.5702C67.7643 8.70113 68.7221 10.1032 69.264 11.5082C69.8058 12.9131 69.9662 14.41 69.7143 15.7125C69.4624 17.015 68.7823 18.2057 67.8041 19.0567C66.826 19.9077 65.4877 20.4731 64.0454 20.6446C62.6031 20.8161 60.9652 20.6047 59.4451 20.0508C57.9251 19.4969 56.4265 18.5653 55.2361 17.4344C54.0457 16.3034 53.0879 14.9013 52.546 13.4964C52.0042 12.0915 51.8438 10.5945 52.0957 9.29207C52.2217 8.64083 52.4547 8.01755 52.7784 7.45069L56.4664 0.994007L64.593 6.0456Z" stroke="#2B9368"/>
<path d="M10.2304 34.655V38.176C9.73569 38.526 9.20836 38.7944 8.64836 38.981C8.08836 39.1677 7.45836 39.261 6.75836 39.261C5.97436 39.261 5.26969 39.142 4.64436 38.904C4.01903 38.6614 3.48469 38.3207 3.04136 37.882C2.60269 37.4387 2.26436 36.9044 2.02636 36.279C1.79303 35.6537 1.67636 34.9584 1.67636 34.193C1.67636 33.4277 1.79069 32.7347 2.01936 32.114C2.25269 31.4887 2.58403 30.9567 3.01336 30.518C3.44736 30.0747 3.97003 29.734 4.58136 29.496C5.19269 29.2533 5.88103 29.132 6.64636 29.132C7.02436 29.132 7.37203 29.1577 7.68936 29.209C8.01136 29.2604 8.31003 29.3374 8.58536 29.44C8.86069 29.538 9.11736 29.6617 9.35536 29.811C9.59336 29.9557 9.82203 30.1237 10.0414 30.315L9.84536 30.623C9.78003 30.735 9.68203 30.7607 9.55136 30.7C9.48136 30.672 9.38103 30.6067 9.25036 30.504C9.11969 30.4014 8.94003 30.294 8.71136 30.182C8.48269 30.07 8.19803 29.9697 7.85736 29.881C7.52136 29.7924 7.11069 29.748 6.62536 29.748C5.98136 29.748 5.39803 29.8507 4.87536 30.056C4.35736 30.2614 3.91403 30.5553 3.54536 30.938C3.18136 31.3207 2.89903 31.7874 2.69836 32.338C2.50236 32.8887 2.40436 33.507 2.40436 34.193C2.40436 34.8884 2.50236 35.5137 2.69836 36.069C2.89903 36.6244 3.18603 37.0957 3.55936 37.483C3.93736 37.8704 4.39469 38.1667 4.93136 38.372C5.46803 38.5774 6.07236 38.68 6.74436 38.68C7.03836 38.68 7.30903 38.6614 7.55636 38.624C7.80836 38.5867 8.04636 38.5354 8.27036 38.47C8.49903 38.4 8.71836 38.316 8.92836 38.218C9.14303 38.1154 9.36003 38.001 9.57936 37.875V35.208H7.68236C7.63103 35.208 7.58669 35.1917 7.54936 35.159C7.51669 35.1264 7.50036 35.089 7.50036 35.047V34.655H10.2304ZM18.2653 35.551L16.2493 30.546C16.1793 30.3827 16.1116 30.1867 16.0463 29.958C16.0183 30.07 15.9879 30.1774 15.9553 30.28C15.9226 30.378 15.8876 30.469 15.8503 30.553L13.8343 35.551H18.2653ZM20.4563 39.149H19.9033C19.8379 39.149 19.7843 39.1327 19.7423 39.1C19.7003 39.0627 19.6676 39.016 19.6443 38.96L18.4823 36.083H13.6173L12.4553 38.96C12.4366 39.0114 12.4039 39.0557 12.3573 39.093C12.3106 39.1304 12.2546 39.149 12.1893 39.149H11.6433L15.6963 29.244H16.4033L20.4563 39.149ZM24.8841 34.137C25.3228 34.137 25.7148 34.0857 26.0601 33.983C26.4101 33.8757 26.7041 33.724 26.9421 33.528C27.1848 33.332 27.3691 33.0964 27.4951 32.821C27.6211 32.5457 27.6841 32.2354 27.6841 31.89C27.6841 31.1854 27.4531 30.6627 26.9911 30.322C26.5338 29.9814 25.8641 29.811 24.9821 29.811H23.1691V34.137H24.8841ZM29.2801 39.149H28.6641C28.5848 39.149 28.5171 39.1374 28.4611 39.114C28.4098 39.086 28.3608 39.037 28.3141 38.967L25.1361 34.949C25.0988 34.8977 25.0591 34.8534 25.0171 34.816C24.9798 34.7787 24.9354 34.7507 24.8841 34.732C24.8374 34.7087 24.7791 34.6924 24.7091 34.683C24.6438 34.6737 24.5621 34.669 24.4641 34.669H23.1691V39.149H22.4481V29.244H24.9821C26.1208 29.244 26.9724 29.4657 27.5371 29.909C28.1064 30.3477 28.3911 30.994 28.3911 31.848C28.3911 32.226 28.3258 32.5714 28.1951 32.884C28.0644 33.1967 27.8754 33.472 27.6281 33.71C27.3854 33.9434 27.0891 34.1347 26.7391 34.284C26.3938 34.4334 26.0041 34.5337 25.5701 34.585C25.6821 34.655 25.7824 34.7484 25.8711 34.865L29.2801 39.149ZM39.646 34.193C39.646 34.9584 39.5317 35.6467 39.303 36.258C39.0743 36.8694 38.7523 37.3897 38.337 37.819C37.9217 38.2484 37.4223 38.5774 36.839 38.806C36.2603 39.0347 35.621 39.149 34.921 39.149H31.302V29.244H34.921C35.621 29.244 36.2603 29.3584 36.839 29.587C37.4223 29.8157 37.9217 30.1447 38.337 30.574C38.7523 31.0034 39.0743 31.5237 39.303 32.135C39.5317 32.7464 39.646 33.4324 39.646 34.193ZM38.904 34.193C38.904 33.5024 38.8083 32.8864 38.617 32.345C38.4257 31.8037 38.155 31.3464 37.805 30.973C37.455 30.5997 37.035 30.315 36.545 30.119C36.055 29.923 35.5137 29.825 34.921 29.825H32.023V38.568H34.921C35.5137 38.568 36.055 38.47 36.545 38.274C37.035 38.078 37.455 37.7934 37.805 37.42C38.155 37.0467 38.4257 36.5894 38.617 36.048C38.8083 35.5067 38.904 34.8884 38.904 34.193ZM48.2387 38.554L48.2247 39.149H42.2887V29.244H48.2247V29.839H43.0097V33.843H47.3497V34.424H43.0097V38.554H48.2387ZM58.4038 29.244V39.149H58.0678C58.0071 39.149 57.9558 39.1397 57.9138 39.121C57.8765 39.0977 57.8391 39.0604 57.8018 39.009L51.3688 30.413C51.3828 30.553 51.3898 30.686 51.3898 30.812V39.149H50.7598V29.244H51.1168C51.1821 29.244 51.2311 29.2534 51.2638 29.272C51.3011 29.286 51.3408 29.321 51.3828 29.377L57.8018 37.952C57.7878 37.812 57.7808 37.679 57.7808 37.553V29.244H58.4038Z" fill="white"/>
<path d="M11.7896 19.7284C11.7896 20.5184 11.6521 21.2484 11.3771 21.9184C11.1071 22.5834 10.7246 23.1609 10.2296 23.6509C9.73464 24.1359 9.13714 24.5159 8.43714 24.7909C7.74214 25.0609 6.96964 25.1959 6.11964 25.1959H1.87464V14.2684H6.11964C6.96964 14.2684 7.74214 14.4059 8.43714 14.6809C9.13714 14.9559 9.73464 15.3359 10.2296 15.8209C10.7246 16.3059 11.1071 16.8834 11.3771 17.5534C11.6521 18.2184 11.7896 18.9434 11.7896 19.7284ZM9.19464 19.7284C9.19464 19.1884 9.12464 18.7009 8.98464 18.2659C8.84464 17.8309 8.64214 17.4634 8.37714 17.1634C8.11714 16.8584 7.79714 16.6259 7.41714 16.4659C7.03714 16.3009 6.60464 16.2184 6.11964 16.2184H4.42464V23.2459H6.11964C6.60464 23.2459 7.03714 23.1659 7.41714 23.0059C7.79714 22.8409 8.11714 22.6084 8.37714 22.3084C8.64214 22.0034 8.84464 21.6334 8.98464 21.1984C9.12464 20.7634 9.19464 20.2734 9.19464 19.7284ZM17.6658 19.4059C18.0108 19.4059 18.3033 19.3634 18.5433 19.2784C18.7883 19.1884 18.9883 19.0659 19.1433 18.9109C19.2983 18.7559 19.4108 18.5759 19.4808 18.3709C19.5508 18.1609 19.5858 17.9359 19.5858 17.6959C19.5858 17.2159 19.4283 16.8409 19.1133 16.5709C18.8033 16.3009 18.3208 16.1659 17.6658 16.1659H16.6458V19.4059H17.6658ZM23.0508 25.1959H20.7558C20.3308 25.1959 20.0258 25.0359 19.8408 24.7159L18.0258 21.5434C17.9408 21.4084 17.8458 21.3109 17.7408 21.2509C17.6358 21.1859 17.4858 21.1534 17.2908 21.1534H16.6458V25.1959H14.1108V14.2684H17.6658C18.4558 14.2684 19.1283 14.3509 19.6833 14.5159C20.2433 14.6759 20.6983 14.9009 21.0483 15.1909C21.4033 15.4809 21.6608 15.8234 21.8208 16.2184C21.9808 16.6134 22.0608 17.0434 22.0608 17.5084C22.0608 17.8634 22.0133 18.1984 21.9183 18.5134C21.8233 18.8284 21.6833 19.1209 21.4983 19.3909C21.3133 19.6559 21.0833 19.8934 20.8083 20.1034C20.5383 20.3134 20.2258 20.4859 19.8708 20.6209C20.0358 20.7059 20.1908 20.8134 20.3358 20.9434C20.4808 21.0684 20.6108 21.2184 20.7258 21.3934L23.0508 25.1959ZM27.3442 16.2184V18.7684H30.7792V20.6434H27.3442V23.2459H31.8292V25.1959H24.7942V14.2684H31.8292V16.2184H27.3442ZM39.9928 21.0184L38.9803 18.0259C38.9053 17.8359 38.8253 17.6134 38.7403 17.3584C38.6553 17.0984 38.5703 16.8184 38.4853 16.5184C38.4103 16.8234 38.3303 17.1059 38.2453 17.3659C38.1603 17.6259 38.0803 17.8509 38.0053 18.0409L37.0003 21.0184H39.9928ZM44.0203 25.1959H42.0553C41.8353 25.1959 41.6578 25.1459 41.5228 25.0459C41.3878 24.9409 41.2853 24.8084 41.2153 24.6484L40.5703 22.7434H36.4153L35.7703 24.6484C35.7153 24.7884 35.6153 24.9159 35.4703 25.0309C35.3303 25.1409 35.1553 25.1959 34.9453 25.1959H32.9653L37.1953 14.2684H39.7903L44.0203 25.1959ZM57.9919 14.2684V25.1959H55.7569V18.9109C55.7569 18.7659 55.7594 18.6084 55.7644 18.4384C55.7744 18.2684 55.7894 18.0959 55.8094 17.9209L52.9069 23.5384C52.8169 23.7134 52.6944 23.8459 52.5394 23.9359C52.3894 24.0259 52.2169 24.0709 52.0219 24.0709H51.6769C51.4819 24.0709 51.3069 24.0259 51.1519 23.9359C51.0019 23.8459 50.8819 23.7134 50.7919 23.5384L47.8894 17.9059C47.9044 18.0859 47.9169 18.2634 47.9269 18.4384C47.9369 18.6084 47.9419 18.7659 47.9419 18.9109V25.1959H45.7069V14.2684H47.6419C47.7519 14.2684 47.8469 14.2709 47.9269 14.2759C48.0119 14.2809 48.0869 14.2959 48.1519 14.3209C48.2169 14.3459 48.2744 14.3859 48.3244 14.4409C48.3794 14.4909 48.4319 14.5634 48.4819 14.6584L51.2944 20.2009C51.3944 20.3909 51.4894 20.5884 51.5794 20.7934C51.6744 20.9984 51.7644 21.2084 51.8494 21.4234C51.9344 21.2034 52.0219 20.9884 52.1119 20.7784C52.2069 20.5684 52.3069 20.3684 52.4119 20.1784L55.2169 14.6584C55.2669 14.5634 55.3169 14.4909 55.3669 14.4409C55.4219 14.3859 55.4819 14.3459 55.5469 14.3209C55.6119 14.2959 55.6844 14.2809 55.7644 14.2759C55.8494 14.2709 55.9469 14.2684 56.0569 14.2684H57.9919Z" fill="white"/>
</svg>
